<svg width="40" height="41" viewBox="0 0 40 41" fill="none" xmlns="http://www.w3.org/2000/svg">
<rect y="0.5" width="40" height="40" rx="20" fill="#FF7477" fill-opacity="0.08"/>
<path fill-rule="evenodd" clip-rule="evenodd" d="M24.3506 12.6999C23.4062 12.6999 22.6406 13.4655 22.6406 14.4099C22.6406 14.7067 22.7163 14.9859 22.8493 15.2292C22.858 15.2424 22.8663 15.2559 22.8744 15.2697C22.8824 15.2835 22.8901 15.2974 22.8973 15.3114C23.199 15.7968 23.7371 16.1199 24.3506 16.1199C25.295 16.1199 26.0606 15.3543 26.0606 14.4099C26.0606 13.4655 25.295 12.6999 24.3506 12.6999ZM21.873 16.8962C22.5078 17.5288 23.3836 17.9199 24.3506 17.9199C26.2891 17.9199 27.8606 16.3484 27.8606 14.4099C27.8606 12.4714 26.2891 10.8999 24.3506 10.8999C22.4121 10.8999 20.8406 12.4714 20.8406 14.4099C20.8406 14.7325 20.8841 15.0449 20.9656 15.3416L16.3874 18.0133C15.7526 17.381 14.8772 16.9901 13.9104 16.9901C11.9719 16.9901 10.4004 18.5616 10.4004 20.5001C10.4004 22.4387 11.9719 24.0101 13.9104 24.0101C14.8776 24.0101 15.7534 23.6189 16.3883 22.9861L20.9669 25.6542C20.8846 25.9522 20.8406 26.2662 20.8406 26.5904C20.8406 28.5289 22.4121 30.1004 24.3506 30.1004C26.2891 30.1004 27.8606 28.5289 27.8606 26.5904C27.8606 24.6519 26.2891 23.0804 24.3506 23.0804C23.3852 23.0804 22.5109 23.4701 21.8763 24.1008L17.2955 21.4315C17.3769 21.1349 17.4204 20.8226 17.4204 20.5001C17.4204 20.1773 17.3768 19.8646 17.2952 19.5677L21.873 16.8962ZM15.3644 19.5998C15.3714 19.6131 15.3787 19.6264 15.3864 19.6396C15.3941 19.6529 15.4022 19.666 15.4106 19.6788C15.5443 19.9225 15.6204 20.2025 15.6204 20.5001C15.6204 20.796 15.5453 21.0743 15.4131 21.317C15.4037 21.3311 15.3947 21.3456 15.3861 21.3604C15.3777 21.3749 15.3697 21.3895 15.3622 21.4042C15.0602 21.8881 14.5229 22.2101 13.9104 22.2101C12.966 22.2101 12.2004 21.4445 12.2004 20.5001C12.2004 19.5557 12.966 18.7901 13.9104 18.7901C14.5244 18.7901 15.0629 19.1138 15.3644 19.5998ZM22.6406 26.5904C22.6406 26.3123 22.707 26.0498 22.8247 25.8177C22.8457 25.7897 22.8653 25.7603 22.8834 25.7293C22.9006 25.6998 22.9159 25.6696 22.9295 25.6391C23.2363 25.1815 23.7583 24.8804 24.3506 24.8804C25.295 24.8804 26.0606 25.646 26.0606 26.5904C26.0606 27.5348 25.295 28.3004 24.3506 28.3004C23.4062 28.3004 22.6406 27.5348 22.6406 26.5904Z" fill="#FF7477"/>
</svg>
